HIERARCHY
ROOT SpineBase
{
  OFFSET 0.000000 0.000000 0.000000
  CHANNELS 6 Xposition Yposition Zposition Zrotation Xrotation Yrotation
  JOINT SpineMid
  {
    OFFSET 0.000000 30.893644 0.000000
    CHANNELS 3 Zrotation Xrotation Yrotation
    JOINT SpineShoulder
    {
      OFFSET -0.039960 23.036086 -0.583588
      CHANNELS 3 Zrotation Xrotation Yrotation
      JOINT Neck
      {
        OFFSET -0.048250 7.665331 -0.507865
        CHANNELS 3 Zrotation Xrotation Yrotation
        JOINT Head
        {
          OFFSET -0.216081 9.283606 4.780034
          CHANNELS 3 Zrotation Xrotation Yrotation
          End Site
          {
            OFFSET 0 0 0
          }
        }
      }
      JOINT ShoulderLeft
      {
        OFFSET -9.962710 -7.332763 1.477265
        CHANNELS 3 Zrotation Xrotation Yrotation
        JOINT ElbowLeft
        {
          OFFSET 12.320225 -12.664321 -18.026559
          CHANNELS 3 Zrotation Xrotation Yrotation
          JOINT WristLeft
          {
            OFFSET 11.318613 -20.856032 -4.486085
            CHANNELS 3 Zrotation Xrotation Yrotation
            JOINT HandLeft
            {
              OFFSET 3.199636 -9.368768 -1.568066
              CHANNELS 3 Zrotation Xrotation Yrotation
              JOINT HandTipLeft
              {
                OFFSET 4.457728 -6.569878 -0.763893
                CHANNELS 3 Zrotation Xrotation Yrotation
                End Site
                {
                  OFFSET 0 0 0
                }
              }
              JOINT ThumbLeft
              {
                OFFSET -0.419762 -0.933274 -0.006126
                CHANNELS 3 Zrotation Xrotation Yrotation
                End Site
                {
                  OFFSET 0 0 0
                }
              }
            }
          }
        }
      }
      JOINT ShoulderRight
      {
        OFFSET 2.295537 -1.429455 -12.435852
        CHANNELS 3 Zrotation Xrotation Yrotation
        JOINT ElbowRight
        {
          OFFSET 5.133243 -22.398371 -8.590219
          CHANNELS 3 Zrotation Xrotation Yrotation
          JOINT WristRight
          {
            OFFSET 7.507199 -22.607179 -1.457436
            CHANNELS 3 Zrotation Xrotation Yrotation
            JOINT HandRight
            {
              OFFSET 1.975526 -4.981917 -0.142385
              CHANNELS 3 Zrotation Xrotation Yrotation
              JOINT HandTipRight
              {
                OFFSET 3.994451 -7.020677 -0.641916
                CHANNELS 3 Zrotation Xrotation Yrotation
                End Site
                {
                  OFFSET 0 0 0
                }
              }
              JOINT ThumbRight
              {
                OFFSET 1.029621 1.826685 -3.912521
                CHANNELS 3 Zrotation Xrotation Yrotation
                End Site
                {
                  OFFSET 0 0 0
                }
              }
            }
          }
        }
      }
    }
  }
  JOINT HipLeft
  {
    OFFSET -4.121813 0.636071 -5.365123
    CHANNELS 3 Zrotation Xrotation Yrotation
    JOINT KneeLeft
    {
      OFFSET 15.763027 -27.002003 -8.565873
      CHANNELS 3 Zrotation Xrotation Yrotation
      JOINT AnkleLeft
      {
        OFFSET -1.971940 -35.939176 -6.311463
        CHANNELS 3 Zrotation Xrotation Yrotation
        JOINT FootLeft
        {
          OFFSET -8.448305 -1.837697 -9.936114
          CHANNELS 3 Zrotation Xrotation Yrotation
          End Site
          {
            OFFSET 0 0 0
          }
        }
      }
    }
  }
  JOINT HipRight
  {
    OFFSET 3.568364 2.077674 -1.136172
    CHANNELS 3 Zrotation Xrotation Yrotation
    JOINT KneeRight
    {
      OFFSET 1.696772 -32.112799 -5.025430
      CHANNELS 3 Zrotation Xrotation Yrotation
      JOINT AnkleRight
      {
        OFFSET -3.132414 -32.985278 -0.037663
        CHANNELS 3 Zrotation Xrotation Yrotation
        JOINT FootRight
        {
          OFFSET -1.222641 -4.873906 -4.948044
          CHANNELS 3 Zrotation Xrotation Yrotation
          End Site
          {
            OFFSET 0 0 0
          }
        }
      }
    }
  }
}
MOTION
Frames: 14
Frame Time: 0.033333
44.854397 68.635660 333.905773 -0.000000 0.000000 -28.807098 0.000000 -0.000000 28.807098 -0.000000 0.000000 0.000000 -0.000000 0.000000 0.000000 0.000000 0.000000 0.000000 -0.000000 0.000000 0.000000 -0.000000 0.000000 0.000000 -0.000000 0.000000 0.000000 -0.000000 0.000000 0.000000 0.000000 0.000000 0.000000 0.000000 0.000000 0.000000 -0.000000 0.000000 0.000000 -0.000000 0.000000 0.000000 -0.000000 0.000000 0.000000 -0.000000 0.000000 0.000000 0.000000 0.000000 0.000000 0.000000 0.000000 0.000000 0.000000 -0.000000 28.807098 -0.000000 0.000000 0.000000 -0.000000 0.000000 0.000000 0.000000 0.000000 0.000000 0.000000 -0.000000 28.807098 -0.000000 0.000000 0.000000 -0.000000 0.000000 0.000000 0.000000 0.000000 0.000000
44.893401 68.614936 333.915164 0.074479 0.070352 -29.959670 -0.029393 -0.098145 29.959599 -0.000000 0.000000 0.000000 -0.000000 0.000000 0.000000 0.000000 0.000000 0.000000 -0.000000 0.000000 0.000000 -0.000000 0.000000 0.000000 0.071557 -1.718467 -0.599212 -1.158523 1.313422 0.487239 0.000000 0.000000 0.000000 0.000000 0.000000 0.000000 -0.169922 0.892531 0.270330 0.165730 -0.893319 -0.267714 -0.242625 -2.738308 -1.086540 -2.447872 2.836754 1.533205 0.000000 0.000000 0.000000 0.000000 0.000000 0.000000 -0.029393 -0.098145 29.959599 -0.000000 0.000000 0.000000 2.308312 -3.393853 4.271199 0.000000 0.000000 0.000000 -0.029393 -0.098145 29.959599 -0.000000 0.000000 0.000000 -13.253950 6.155494 11.665489 0.000000 0.000000 0.000000
44.927931 68.595256 333.927174 0.132834 0.126911 -31.012093 -0.048459 -0.177209 31.011871 -0.000000 0.000000 0.000000 -0.000000 0.000000 0.000000 0.000000 0.000000 0.000000 0.212615 0.752833 0.423624 -0.218194 -0.751235 -0.426452 0.036968 -3.337543 -1.150721 -2.104649 2.525587 0.966389 0.000000 0.000000 0.000000 0.000000 0.000000 0.000000 -0.339092 1.443299 0.463186 1.163072 -1.442780 -0.484235 -1.650111 -5.164139 -2.016011 -4.182205 5.120389 2.957376 0.000000 0.000000 0.000000 0.000000 0.000000 0.000000 -0.734906 -1.067782 31.098032 1.047788 0.407950 -0.097350 6.479389 -8.270957 9.974092 0.000000 0.000000 0.000000 -0.048459 -0.177209 31.011871 0.493421 0.675334 -0.067632 -21.642274 8.060724 18.491776 0.000000 0.000000 0.000000
44.957985 68.576620 333.941802 0.175125 0.169732 -31.975910 -0.058671 -0.236718 31.975529 -0.000000 0.000000 0.000000 -0.269021 0.892548 0.160751 0.000000 0.000000 0.000000 0.232151 0.877447 0.514769 -0.240053 -0.875319 -0.518380 -0.105277 -4.835172 -1.651193 -2.830325 3.623016 1.410061 0.000000 0.000000 0.000000 0.000000 0.000000 0.000000 -0.505018 1.654994 0.577675 1.685195 -1.568854 -0.572464 -2.907583 -7.394039 -2.938222 -5.073581 6.949105 4.148979 0.000000 0.000000 0.000000 0.000000 0.000000 0.000000 -0.896863 -1.322639 32.094388 1.287072 0.474469 -0.135595 14.067800 -15.029056 18.002583 0.000000 0.000000 0.000000 -0.058671 -0.236718 31.975529 0.690353 0.967010 -0.098503 -25.906435 9.198137 21.900240 0.000000 0.000000 0.000000
44.983564 68.559028 333.959049 0.201401 0.198858 -32.860979 -0.061275 -0.276319 32.860482 -0.000000 0.000000 0.000000 -0.315009 1.203695 0.192493 0.000000 0.000000 0.000000 0.195058 0.834264 0.526213 -0.202733 -0.832432 -0.529106 -0.355197 -6.191212 -2.097223 -3.327900 4.594065 1.792441 0.000000 0.000000 0.000000 0.000000 0.000000 0.000000 -0.666608 1.528924 0.612649 2.168471 -1.296815 -0.570686 -4.453920 -9.439519 -3.851855 -5.008692 8.420201 5.004308 0.000000 0.000000 0.000000 0.000000 0.000000 0.000000 -0.943378 -1.391073 33.008525 1.347001 0.454115 -0.166217 27.405374 -23.200642 29.544831 0.000000 0.000000 0.000000 -0.061275 -0.276319 32.860482 0.853803 1.227903 -0.126824 -27.504885 10.140248 22.914339 0.000000 0.000000 0.000000
45.004668 68.542480 333.978914 0.211691 0.214319 -33.675736 -0.057330 -0.295735 33.675192 -0.000000 0.000000 0.000000 -0.338653 1.520652 0.212820 0.000000 0.000000 0.000000 -0.000000 0.000000 0.000000 -0.000000 0.000000 0.000000 -0.711356 -7.387920 -2.485239 -3.590516 5.428659 2.090192 0.000000 0.000000 0.000000 0.000000 0.000000 0.000000 -0.824140 1.064780 0.566680 2.611610 -0.624815 -0.486252 -6.307588 -11.326038 -4.788915 -3.898433 9.619689 5.441899 0.000000 0.000000 0.000000 0.000000 0.000000 0.000000 -0.885465 -1.270445 33.849721 1.230681 0.348089 -0.189587 47.448944 -30.346301 44.221721 0.000000 0.000000 0.000000 -0.920771 -0.580982 33.818550 1.863276 1.211791 -0.296144 -26.867217 11.198106 21.914352 0.000000 0.000000 0.000000
44.995884 68.529537 334.033087 0.192393 0.154078 -35.052641 -0.069007 -0.236628 35.052240 -0.000000 0.000000 0.000000 -0.300320 2.155572 0.208453 0.000000 0.000000 0.000000 -0.000000 0.000000 0.000000 -0.000000 0.000000 0.000000 -1.208276 -7.982314 -2.652682 -4.718658 4.822398 1.755177 0.000000 0.000000 0.000000 0.000000 0.000000 0.000000 -1.364061 0.028655 0.531473 3.665570 0.767263 -0.418377 -9.879900 -14.934440 -6.797930 0.180035 13.769502 6.541382 0.000000 0.000000 0.000000 0.000000 0.000000 0.000000 -0.069007 -0.236628 35.052240 -0.520534 -0.821608 0.132898 75.235209 -37.305122 55.569698 0.000000 0.000000 0.000000 -1.015754 -0.565407 35.210971 1.894197 1.221006 -0.314412 -26.772800 11.358619 21.831837 0.000000 0.000000 0.000000
44.986389 68.501539 334.089794 0.149848 0.079381 -35.173147 -0.076761 -0.151207 35.172942 -0.000000 0.000000 0.000000 -0.156138 2.626461 0.143428 0.000000 0.000000 0.000000 -0.000000 0.000000 0.000000 -0.030237 -0.774279 -0.414570 -1.720182 -7.905899 -2.408079 -4.181953 6.268632 2.481056 0.000000 0.000000 0.000000 0.000000 0.000000 0.000000 -1.547508 -1.280092 0.284967 4.095735 2.412868 -0.182126 -12.902042 -15.673328 -7.569593 3.855137 11.686704 4.221135 0.000000 0.000000 0.000000 0.000000 0.000000 0.000000 -0.076761 -0.151207 35.172942 -0.778364 -1.163581 0.192909 91.920941 -45.362006 55.527432 0.000000 0.000000 0.000000 -1.015114 -0.715718 35.341013 1.551209 0.821669 -0.263887 -15.782686 18.030140 11.013969 0.000000 0.000000 0.000000
44.994021 68.494305 334.104079 0.084237 0.098351 -35.729064 -0.010950 -0.129030 35.728979 -0.000000 0.000000 0.000000 -0.097514 2.638917 0.112556 0.000000 0.000000 0.000000 -0.560508 -1.018125 -0.201128 0.660424 -0.272605 -0.533943 -2.360386 -8.155150 -2.298639 -3.833223 7.574605 3.128881 0.000000 0.000000 0.000000 0.000000 0.000000 0.000000 -1.255891 -3.287329 -0.312175 3.600972 5.038378 0.490893 -15.624080 -15.449578 -7.952039 8.295636 9.817717 2.119299 0.000000 0.000000 0.000000 0.000000 0.000000 0.000000 -0.177994 0.603521 36.040030 -1.247113 -2.274188 -0.083635 82.289035 -55.898169 32.941919 0.000000 0.000000 0.000000 -0.993469 -0.678229 35.903884 2.488516 2.272148 -0.436687 -2.518258 14.275045 -2.374410 0.000000 0.000000 0.000000
45.045998 68.491047 334.061264 0.031899 0.211645 -36.497972 0.100243 -0.189110 36.498079 -0.000000 0.000000 0.000000 0.174947 2.239517 -0.040952 0.000000 0.000000 0.000000 -0.830848 -1.630881 -0.427517 1.028438 -0.110915 -0.592892 -2.929384 -8.391616 -2.205365 -2.624595 7.888872 2.782618 0.000000 0.000000 0.000000 0.000000 0.000000 0.000000 -0.979625 -4.724175 -0.761521 3.107689 6.905169 1.028193 -18.234641 -15.703539 -8.601463 12.654254 9.991024 1.136111 0.000000 0.000000 0.000000 0.000000 0.000000 0.000000 0.064969 1.048408 36.864488 -1.801678 -3.086617 -0.107846 101.729176 -51.873605 53.891647 0.000000 0.000000 0.000000 -1.003740 -0.773366 36.692013 2.552606 2.004774 -0.432763 10.318482 16.566989 -15.642930 0.000000 0.000000 0.000000
45.140749 68.483500 333.954137 0.035284 0.441723 -35.653103 0.228802 -0.379492 35.653725 -0.000000 0.000000 0.000000 0.178888 2.071248 -0.046690 0.000000 0.000000 0.000000 -1.031773 -2.190302 -0.707536 1.254201 0.129426 -0.514897 -3.368560 -8.873523 -2.257705 -0.891734 9.416882 3.080657 0.000000 0.000000 0.000000 0.000000 0.000000 0.000000 -0.559302 -5.263992 -1.037884 2.719122 7.523761 1.324557 -20.585208 -16.862608 -9.703430 16.189485 12.300277 1.114361 0.000000 0.000000 0.000000 0.000000 0.000000 0.000000 0.326566 1.724345 36.196999 -2.466362 -4.369635 -0.275809 117.823460 -50.061812 65.709391 0.000000 0.000000 0.000000 -0.932169 -1.184468 35.860253 2.483644 1.505659 -0.383235 22.177087 16.851608 -27.959321 0.000000 0.000000 0.000000
45.240791 68.450923 333.843792 0.025954 0.687091 -35.947887 0.382357 -0.571468 35.949638 -0.000000 0.000000 0.000000 0.385386 2.245940 -0.152157 0.000000 0.000000 0.000000 -1.103401 -2.446760 -0.868064 1.253284 0.006392 -0.554788 -2.739488 -8.153613 -1.972132 -0.625121 8.204422 2.224713 0.000000 0.000000 0.000000 0.000000 0.000000 0.000000 -0.135531 -5.302999 -1.191955 2.360079 7.507805 1.484584 -21.690468 -17.063254 -10.009534 17.594502 12.866185 0.960072 0.000000 0.000000 0.000000 0.000000 0.000000 0.000000 -0.304622 -0.494147 36.377799 0.372981 -2.322711 -0.312564 100.173873 -55.174438 49.514218 0.000000 0.000000 0.000000 -1.186460 -1.533591 36.215625 2.739060 0.515047 -0.360035 27.721429 12.979503 -33.320975 0.000000 0.000000 0.000000
45.297679 68.423275 333.811240 -0.012949 0.784019 -37.049111 0.482725 -0.617931 37.051803 -0.336692 0.810142 -0.014835 0.700624 1.998412 -0.105016 0.000000 0.000000 0.000000 -0.532330 -3.072140 -1.008977 0.906344 -0.533181 -0.558172 -2.138397 -7.035055 -1.562553 -0.812459 7.231473 1.841911 0.000000 0.000000 0.000000 0.000000 0.000000 0.000000 0.642529 -5.267487 -1.119092 2.156429 6.378773 1.384461 -22.254412 -17.972403 -10.592160 17.428439 14.441178 1.490196 0.000000 0.000000 0.000000 0.000000 0.000000 0.000000 -0.034645 -1.457670 37.125045 0.692172 -0.809684 0.017431 94.560541 -58.265195 41.506212 0.000000 0.000000 0.000000 -1.129784 0.192873 37.255936 0.026400 -3.116128 -0.087577 31.711083 15.668343 -37.030155 0.000000 0.000000 0.000000
45.312263 68.443473 333.865471 -0.098698 0.817161 -38.787256 -0.237369 -0.165802 38.777203 0.042063 0.139610 -0.007659 0.281640 2.220716 0.125794 0.000000 0.000000 0.000000 -0.341922 -2.736795 -0.757440 0.684648 -1.336626 -0.947083 -1.070253 -6.637138 -1.502033 -2.275078 6.103695 1.483062 0.000000 0.000000 0.000000 0.000000 0.000000 0.000000 0.886002 -4.999010 -1.094779 1.943070 5.987642 1.410685 -22.973502 -20.464551 -12.321959 16.980161 18.464720 3.009206 0.000000 0.000000 0.000000 0.000000 0.000000 0.000000 0.887386 -2.093577 38.221496 -0.210871 1.199835 0.758829 94.378074 -54.632789 45.943116 0.000000 0.000000 0.000000 -0.800792 1.561246 38.896562 -2.810934 -5.690574 0.020283 32.686858 21.675151 -37.466824 0.000000 0.000000 0.000000
